<svg width="28" height="28" viewBox="0 0 28 28" fill="none" xmlns="http://www.w3.org/2000/svg">
<path d="M17.4893 25.651V20.9872C17.6515 19.5266 17.2327 18.0608 16.3234 16.9063C19.8212 16.9063 23.3191 14.5744 23.3191 10.4936C23.4124 9.03615 23.0043 7.60202 22.1531 6.41275C22.4796 5.0719 22.4796 3.67276 22.1531 2.33191C22.1531 2.33191 20.9872 2.33191 18.6553 4.08084C15.5771 3.49786 12.4057 3.49786 9.32763 4.08084C6.99572 2.33191 5.82977 2.33191 5.82977 2.33191C5.47998 3.67276 5.47998 5.0719 5.82977 6.41275C4.9808 7.59722 4.56876 9.03939 4.66381 10.4936C4.66381 14.5744 8.16168 16.9063 11.6595 16.9063C11.2048 17.4777 10.8667 18.1306 10.6685 18.8302C10.4703 19.5297 10.412 20.2643 10.4936 20.9872V25.651" stroke="#4A5565" stroke-width="2.33191" stroke-linecap="round" stroke-linejoin="round"/>
<path d="M10.4936 20.9872C5.23513 23.3191 4.66382 18.6553 2.33191 18.6553" stroke="#4A5565" stroke-width="2.33191" stroke-linecap="round" stroke-linejoin="round"/>
</svg>
