<svg width="48" height="48" viewBox="0 0 48 48" fill="none" xmlns="http://www.w3.org/2000/svg">
<path d="M42.84 21.844C43.198 21.686 43.5019 21.4265 43.7139 21.0976C43.9259 20.7687 44.0367 20.3848 44.0326 19.9935C44.0286 19.6022 43.9099 19.2206 43.6911 18.8961C43.4724 18.5717 43.1632 18.3185 42.802 18.168L25.66 10.36C25.1389 10.1223 24.5728 9.99927 24 9.99927C23.4272 9.99927 22.8611 10.1223 22.34 10.36L5.2 18.16C4.84394 18.3159 4.54103 18.5723 4.32833 18.8976C4.11563 19.223 4.00236 19.6033 4.00236 19.992C4.00236 20.3807 4.11563 20.761 4.32833 21.0864C4.54103 21.4117 4.84394 21.668 5.2 21.824L22.34 29.64C22.8611 29.8777 23.4272 30.0007 24 30.0007C24.5728 30.0007 25.1389 29.8777 25.66 29.64L42.84 21.844Z" stroke="#FAFAFA" stroke-width="4" stroke-linecap="round" stroke-linejoin="round"/>
<path d="M44 20V32" stroke="#FAFAFA" stroke-width="4" stroke-linecap="round" stroke-linejoin="round"/>
<path d="M12 25V32C12 33.5913 13.2643 35.1174 15.5147 36.2426C17.7652 37.3679 20.8174 38 24 38C27.1826 38 30.2348 37.3679 32.4853 36.2426C34.7357 35.1174 36 33.5913 36 32V25" stroke="#FAFAFA" stroke-width="4" stroke-linecap="round" stroke-linejoin="round"/>
</svg>
