<svg width="28" height="28" viewBox="0 0 28 28" fill="none" xmlns="http://www.w3.org/2000/svg">
<path d="M18.6553 9.32764C20.5107 9.32764 22.29 10.0647 23.602 11.3766C24.9139 12.6886 25.651 14.468 25.651 16.3234V24.485H20.9872V16.3234C20.9872 15.7049 20.7415 15.1118 20.3042 14.6745C19.8669 14.2371 19.2737 13.9915 18.6553 13.9915C18.0368 13.9915 17.4437 14.2371 17.0064 14.6745C16.569 15.1118 16.3234 15.7049 16.3234 16.3234V24.485H11.6595V16.3234C11.6595 14.468 12.3966 12.6886 13.7085 11.3766C15.0205 10.0647 16.7999 9.32764 18.6553 9.32764Z" stroke="#4A5565" stroke-width="2.33191" stroke-linecap="round" stroke-linejoin="round"/>
<path d="M6.99573 10.4936H2.33191V24.485H6.99573V10.4936Z" stroke="#4A5565" stroke-width="2.33191" stroke-linecap="round" stroke-linejoin="round"/>
<path d="M4.66382 6.99573C5.95169 6.99573 6.99573 5.95169 6.99573 4.66382C6.99573 3.37594 5.95169 2.33191 4.66382 2.33191C3.37594 2.33191 2.33191 3.37594 2.33191 4.66382C2.33191 5.95169 3.37594 6.99573 4.66382 6.99573Z" stroke="#4A5565" stroke-width="2.33191" stroke-linecap="round" stroke-linejoin="round"/>
</svg>
