<svg width="16" height="16" viewBox="0 0 16 16" fill="none" xmlns="http://www.w3.org/2000/svg">
<g clip-path="url(#clip0_1_1334)">
<path d="M9.69064 14.4575C9.71597 14.5206 9.76 14.5744 9.81682 14.6118C9.87364 14.6492 9.94054 14.6683 10.0085 14.6665C10.0765 14.6648 10.1424 14.6423 10.1972 14.6021C10.252 14.5618 10.2932 14.5058 10.3153 14.4415L14.6486 1.77479C14.67 1.71571 14.674 1.65179 14.6604 1.59049C14.6467 1.52919 14.6159 1.47305 14.5715 1.42864C14.527 1.38423 14.4709 1.35338 14.4096 1.33971C14.3483 1.32604 14.2844 1.33012 14.2253 1.35145L1.55864 5.68479C1.4943 5.70685 1.43826 5.74806 1.39802 5.8029C1.35778 5.85774 1.33529 5.92357 1.33354 5.99156C1.3318 6.05955 1.3509 6.12645 1.38828 6.18327C1.42565 6.24009 1.47952 6.28412 1.54264 6.30945L6.82931 8.42945C6.99643 8.49636 7.14827 8.59643 7.27568 8.72361C7.40309 8.85079 7.50343 9.00245 7.57064 9.16945L9.69064 14.4575Z" stroke="#171717" stroke-width="1.33333" stroke-linecap="round" stroke-linejoin="round"/>
<path d="M14.5693 1.4314L7.276 8.72406" stroke="#171717" stroke-width="1.33333" stroke-linecap="round" stroke-linejoin="round"/>
</g>
<defs>
<clipPath id="clip0_1_1334">
<rect width="16" height="16" fill="white"/>
</clipPath>
</defs>
</svg>
